<svg width="31" height="30" viewBox="0 0 31 30" fill="none" xmlns="http://www.w3.org/2000/svg">
<path d="M25.946 0L4.73511 0C2.31216 0 0.340576 1.97159 0.340576 4.39453L0.340576 25.6055C0.340576 28.0284 2.31216 30 4.73511 30L13.5828 30L13.5828 19.3945L10.0671 19.3945L10.0671 14.1211H13.5828V10.5469C13.5828 7.63893 15.9483 5.27344 18.8562 5.27344L24.1882 5.27344V10.5469H18.8562L18.8562 14.1211H24.1882L23.3093 19.3945H18.8562V30H25.946C28.369 30 30.3406 28.0284 30.3406 25.6055L30.3406 4.39453C30.3406 1.97159 28.369 0 25.946 0Z" fill="black"/>
</svg>
