<svg width="21" height="20" viewBox="0 0 21 20" fill="none" xmlns="http://www.w3.org/2000/svg">
<path d="M10.7362 0.392975C5.21118 0.392975 0.736176 4.75465 0.736176 10.134C0.736176 14.4387 3.60118 18.0891 7.57368 19.3762C8.07368 19.4679 8.25701 19.1663 8.25701 18.9078C8.25701 18.6765 8.24868 18.0635 8.24451 17.2515C5.46284 17.8388 4.87618 15.9447 4.87618 15.9447C4.42118 14.8204 3.76368 14.5197 3.76368 14.5197C2.85784 13.9158 3.83368 13.9282 3.83368 13.9282C4.83784 13.9959 5.36534 14.9319 5.36534 14.9319C6.25701 16.4213 7.70618 15.9909 8.27784 15.7423C8.36784 15.112 8.62534 14.6832 8.91118 14.4395C6.69034 14.1959 4.35618 13.3582 4.35618 9.62601C4.35618 8.56285 4.74368 7.69382 5.38534 7.01231C5.27284 6.76614 4.93534 5.77568 5.47284 4.43413C5.47284 4.43413 6.31034 4.17309 8.22284 5.43286C9.02284 5.21642 9.87284 5.10903 10.7228 5.10408C11.5728 5.10903 12.4228 5.21642 13.2228 5.43286C15.1228 4.17309 15.9603 4.43413 15.9603 4.43413C16.4978 5.77568 16.1603 6.76614 16.0603 7.01231C16.6978 7.69382 17.0853 8.56285 17.0853 9.62601C17.0853 13.3681 14.7478 14.1917 12.5228 14.4313C12.8728 14.7237 13.1978 15.321 13.1978 16.2338C13.1978 17.5373 13.1853 18.5848 13.1853 18.9012C13.1853 19.1564 13.3603 19.4613 13.8728 19.3638C17.8737 18.085 20.7362 14.4321 20.7362 10.134C20.7362 4.75465 16.2587 0.392975 10.7362 0.392975Z" fill="#212121"/>
</svg>
