<svg width="31" height="30" viewBox="0 0 31 30" fill="none" xmlns="http://www.w3.org/2000/svg">
<path d="M0.340575 9.375L0.340576 20.625C0.340576 25.8019 4.5387 30 9.71558 30L20.9656 30C26.1424 30 30.3406 25.8019 30.3406 20.625L30.3406 9.375C30.3406 4.19813 26.1424 7.79513e-07 20.9656 1.0058e-06L9.71557 1.49755e-06C4.5387 1.72384e-06 0.340575 4.19813 0.340575 9.375ZM20.9656 2.8125C24.5843 2.8125 27.5281 5.75625 27.5281 9.375L27.5281 20.625C27.5281 24.2437 24.5843 27.1875 20.9656 27.1875L9.71558 27.1875C6.09683 27.1875 3.15308 24.2437 3.15308 20.625L3.15308 9.375C3.15307 5.75625 6.09682 2.8125 9.71557 2.8125L20.9656 2.8125Z" fill="black"/>
<path d="M7.84058 15C7.84058 19.1419 11.1987 22.5 15.3406 22.5C19.4825 22.5 22.8406 19.1419 22.8406 15C22.8406 10.8581 19.4824 7.5 15.3406 7.5C11.1987 7.5 7.84058 10.8581 7.84058 15ZM20.0281 15C20.0281 17.5837 17.9243 19.6875 15.3406 19.6875C12.755 19.6875 10.6531 17.5838 10.6531 15C10.6531 12.4163 12.755 10.3125 15.3406 10.3125C17.9243 10.3125 20.0281 12.4162 20.0281 15Z" fill="black"/>
<path d="M8.27743 6.93715C8.27743 6.38521 7.82999 5.93777 7.27806 5.93777C6.72612 5.93777 6.27869 6.38521 6.27869 6.93715C6.27869 7.48909 6.72612 7.93652 7.27806 7.93652C7.82999 7.93652 8.27743 7.48909 8.27743 6.93715Z" fill="black"/>
</svg>
