<svg width="31" height="30" viewBox="0 0 31 30" fill="none" xmlns="http://www.w3.org/2000/svg">
<path d="M15.3406 30C23.6268 30 30.3406 23.2863 30.3406 15C30.3406 6.71375 23.6268 0 15.3406 0C7.05433 0 0.340576 6.71375 0.340576 15C0.340576 23.2863 7.05433 30 15.3406 30ZM7.20433 14.675L21.6668 9.09875C22.3381 8.85625 22.9243 9.2625 22.7068 10.2775L22.7081 10.2762L20.2456 21.8775C20.0631 22.7 19.5743 22.9 18.8906 22.5125L15.1406 19.7487L13.3318 21.4913C13.1318 21.6913 12.9631 21.86 12.5756 21.86L12.8418 18.0438L19.7918 11.765C20.0943 11.4987 19.7243 11.3488 19.3256 11.6138L10.7368 17.0212L7.03433 15.8663C6.23058 15.6112 6.21308 15.0625 7.20433 14.675Z" fill="black"/>
</svg>
